:SAMPLES-PER-SECOND 30
:FULLY-SPECIFIED
:DEGREES
586
root  -4.81771 38.9286 13.4558 179.933 -29.5191 170.973
RightUpLeg  -2.27991 5.74558 -19.8597
RightLeg  31.7475 -18.7898 -12.344
RightFoot  -6.38965 -0.720318 15.5619
RightToes  -5.8209e-011 0 -3.6325e-017
Spine  18.4664 -2.4095 28.5317
Spine1  17.0562 3.04128 -2.89666
HEad  11.4392 -33.1138 -5.23783
LeftShoulder1  7.24137 -16.6916 -29.7895
LeftArm  -4.98953 -37.2457 -74.4718
LeftForeArm  12.7433 6.38165 -2.91014
LeftHand  -0.246645 0.021 5.37786
RightShoulder  8.80088 17.1516 36.5663
RightArm  -3.54632 46.9568 55.3551
RightForeArm  19.1461 -7.61607 9.69646
RightHand  -0.24729 -0.0210522 -5.37781
LeftUpLeg  -10.0798 7.94644 -8.10373
LeftLeg  22.6132 -23.8508 -10.1935
LeftFoot  -2.87139 -0.07525 1.2508
LeftToes  -7.45818e-011 -3.37383e-011 1.08613e-011
587
root  -4.93746 38.9558 13.399 -179.691 -32.8172 170.578
RightUpLeg  -1.30561 5.05652 -19.7434
RightLeg  32.9811 -20.2215 -13.7924
RightFoot  -5.53687 -0.800047 14.9601
RightToes  -5.8209e-011 0 -3.6325e-017
Spine  16.7849 -1.54153 31.358
Spine1  16.4547 4.16657 -3.42502
HEad  11.72 -36.7017 -5.03723
LeftShoulder1  7.3102 -16.6 -30.3048
LeftArm  -4.62095 -36.232 -74.5388
LeftForeArm  4.86249 6.50491 -3.85157
LeftHand  -0.246645 0.021 5.37786
RightShoulder  8.58549 17.1261 35.5966
RightArm  -1.73748 49.0833 57.1685
RightForeArm  25.2962 -7.51777 10.1504
RightHand  -0.24729 -0.0210522 -5.37781
LeftUpLeg  -9.6398 6.59219 -8.6582
LeftLeg  22.2822 -25.5717 -10.7248
LeftFoot  -2.14519 -0.0993823 1.39726
LeftToes  -7.45818e-011 -3.37383e-011 1.08613e-011
588
root  -5.05589 38.9741 13.346 -179.309 -35.9823 170.218
RightUpLeg  -0.399327 4.4689 -19.5166
RightLeg  34.1954 -21.5738 -15.2522
RightFoot  -4.5821 -0.878881 14.2802
RightToes  -5.8209e-011 0 -3.6325e-017
Spine  15.1143 -0.566477 33.9504
Spine1  15.9369 5.26199 -3.93406
HEad  11.7289 -39.4728 -4.78056
LeftShoulder1  7.35479 -16.4597 -30.7919
LeftArm  -4.40175 -35.5246 -74.5806
LeftForeArm  -1.92942 6.54752 -4.52736
LeftHand  -0.246645 0.021 5.37786
RightShoulder  8.34087 17.0933 34.4922
RightArm  0.102674 51.1121 59.5309
RightForeArm  31.7354 -7.47262 10.3452
RightHand  -0.24729 -0.0210522 -5.37781
LeftUpLeg  -9.25621 5.28713 -9.12699
LeftLeg  22.1024 -27.2291 -11.2802
LeftFoot  -1.48083 -0.120926 1.50592
LeftToes  -7.45818e-011 -3.37383e-011 1.08613e-011
589
root  -5.16589 38.9798 13.2908 -178.89 -39.0114 169.791
RightUpLeg  0.48549 3.92397 -19.3303
RightLeg  35.3415 -22.6948 -16.5919
RightFoot  -3.58698 -0.977007 13.9832
RightToes  -5.8209e-011 0 -3.6325e-017
Spine  13.5495 0.514936 36.1379
Spine1  15.4358 6.32725 -4.39886
HEad  11.4556 -41.6584 -4.49363
LeftShoulder1  7.37984 -16.3205 -31.1827
LeftArm  -4.33731 -34.9643 -74.4823
LeftForeArm  -7.76831 6.57805 -4.99144
LeftHand  -0.246645 0.021 5.37786
RightShoulder  8.13407 17.0775 33.5262
RightArm  2.72093 53.2542 62.0382
RightForeArm  37.6115 -7.46087 10.8918
RightHand  -0.24729 -0.0210522 -5.37781
LeftUpLeg  -8.90994 4.26723 -9.56456
LeftLeg  22.1354 -29.0052 -11.9762
LeftFoot  -0.882799 -0.14283 1.619
LeftToes  -7.45818e-011 -3.37383e-011 1.08613e-011
590
root  -5.27077 38.9825 13.2316 -178.366 -41.9384 169.286
RightUpLeg  1.25139 3.55751 -19.15
RightLeg  36.5496 -23.5653 -17.8588
RightFoot  -2.49883 -1.09179 13.8376
RightToes  -5.8209e-011 0 -3.6325e-017
Spine  12.107 1.66174 37.9543
Spine1  14.8065 7.3581 -4.82814
HEad  11.138 -43.4268 -4.39723
LeftShoulder1  7.39964 -16.2041 -31.5072
LeftArm  -4.19318 -34.5623 -74.2449
LeftForeArm  -12.4297 6.20637 -5.43944
LeftHand  -0.246645 0.021 5.37786
RightShoulder  7.95743 17.0778 32.6683
RightArm  6.05121 55.3176 64.6303
RightForeArm  42.7658 -7.49988 11.8059
RightHand  -0.24729 -0.0210522 -5.37781
LeftUpLeg  -8.62937 3.4194 -9.99116
LeftLeg  22.3084 -30.8064 -12.7506
LeftFoot  -0.338306 -0.16962 1.78225
LeftToes  -7.45818e-011 -3.37383e-011 1.08613e-011
591
root  -5.37909 38.9912 13.1715 -177.779 -44.8199 168.758
RightUpLeg  1.85689 3.46789 -18.8545
RightLeg  37.9457 -24.1762 -19.1185
RightFoot  -1.20925 -1.18523 13.2289
RightToes  -5.8209e-011 0 -3.6325e-017
Spine  10.7251 2.81336 39.5223
Spine1  14.0882 8.32601 -5.26543
HEad  10.8992 -44.7711 -4.43881
LeftShoulder1  7.40165 -16.0807 -31.7571
LeftArm  -4.03072 -34.3739 -74.006
LeftForeArm  -15.6393 4.19167 -6.01694
LeftHand  -0.246645 0.021 5.37786
RightShoulder  7.77448 17.0693 31.7914
RightArm  10.2799 57.205 67.4783
RightForeArm  46.8263 -7.50242 12.9604
RightHand  -0.24729 -0.0210522 -5.37781
LeftUpLeg  -8.35577 2.49018 -10.3916
LeftLeg  22.4834 -32.4484 -13.4619
LeftFoot  0.170557 -0.200087 1.97488
LeftToes  -7.45818e-011 -3.37383e-011 1.08613e-011
592
root  -5.49291 39.0091 13.113 -177.218 -47.6897 168.226
RightUpLeg  2.42485 3.42554 -18.4605
RightLeg  39.3931 -24.5477 -20.2991
RightFoot  0.278191 -1.24138 12.1783
RightToes  -5.8209e-011 0 -3.6325e-017
Spine  9.34879 3.93599 40.8739
Spine1  13.4566 9.20233 -5.69316
HEad  10.5705 -45.7447 -4.24598
LeftShoulder1  7.37476 -15.9425 -31.8898
LeftArm  -4.0952 -34.2842 -73.7673
LeftForeArm  -17.8303 1.75595 -6.44661
LeftHand  -0.246645 0.021 5.37786
RightShoulder  7.58692 17.024 30.9537
RightArm  15.3462 58.9216 70.8257
RightForeArm  49.883 -7.18184 13.8
RightHand  -0.24729 -0.0210522 -5.37781
LeftUpLeg  -7.96103 1.53734 -10.7404
LeftLeg  22.5734 -34.0396 -14.096
LeftFoot  0.66436 -0.22487 2.1006
LeftToes  -7.45818e-011 -3.37383e-011 1.08613e-011
593
root  -5.6055 39.036 13.0519 -176.669 -50.5493 167.649
RightUpLeg  3.05095 3.1244 -18.0736
RightLeg  40.702 -24.8266 -21.3684
RightFoot  1.87096 -1.29141 11.225
RightToes  -5.8209e-011 0 -3.6325e-017
Spine  7.968 5.02286 41.9455
Spine1  12.9674 9.96931 -6.05984
HEad  10.0911 -46.507 -3.72527
LeftShoulder1  7.33836 -15.8281 -31.9275
LeftArm  -4.37109 -34.1828 -73.3668
LeftForeArm  -19.5752 -1.07308 -6.8253
LeftHand  -0.246645 0.021 5.37786
RightShoulder  7.41402 16.9364 30.2576
RightArm  20.8659 60.579 74.6478
RightForeArm  52.6156 -6.67137 14.3756
RightHand  -0.24729 -0.0210522 -5.37781
LeftUpLeg  -7.42671 0.882249 -11.0072
LeftLeg  22.6409 -35.92 -14.8079
LeftFoot  1.14808 -0.2375 2.10721
LeftToes  -7.45818e-011 -3.37383e-011 1.08613e-011
594
root  -5.71083 39.0702 12.9847 -176.067 -53.3836 167.019
RightUpLeg  3.68124 2.62956 -17.6765
RightLeg  41.8781 -25.1207 -22.3949
RightFoot  3.56906 -1.34109 10.4102
RightToes  -5.8209e-011 0 -3.6325e-017
Spine  6.61722 6.05387 42.7321
Spine1  12.4981 10.6199 -6.36148
HEad  9.72033 -47.1369 -3.2409
LeftShoulder1  7.31211 -15.7575 -31.9312
LeftArm  -4.64243 -34.1736 -72.7922
LeftForeArm  -21.1148 -4.03975 -7.24416
LeftHand  -0.246645 0.021 5.37786
RightShoulder  7.25066 16.8272 29.6393
RightArm  28.3332 62.0726 78.9289
RightForeArm  53.846 -5.8283 15.1492
RightHand  -0.24729 -0.0210522 -5.37781
LeftUpLeg  -6.85582 0.633676 -11.1643
LeftLeg  22.8068 -38.2098 -15.7117
LeftFoot  1.62706 -0.239247 2.01852
LeftToes  -7.45818e-011 -3.37383e-011 1.08613e-011
595
root  -5.80787 39.1059 12.9175 -175.407 -56.1431 166.367
RightUpLeg  4.22058 2.31245 -17.1588
RightLeg  43.0006 -25.2923 -23.3235
RightFoot  5.43055 -1.33475 9.29403
RightToes  -5.8209e-011 0 -3.6325e-017
Spine  5.39102 6.99539 43.3205
Spine1  11.9078 11.1789 -6.66096
HEad  9.64155 -47.5954 -3.03841
LeftShoulder1  7.2918 -15.7077 -31.9244
LeftArm  -4.86622 -34.3614 -72.1795
LeftForeArm  -22.283 -6.72649 -7.62547
LeftHand  -0.246645 0.021 5.37786
RightShoulder  7.09203 16.7236 29.0259
RightArm  37.2844 63.2815 83.5819
RightForeArm  53.6679 -4.64665 15.9496
RightHand  -0.24729 -0.0210522 -5.37781
LeftUpLeg  -6.33518 0.516723 -11.2363
LeftLeg  23.0938 -40.5937 -16.7147
LeftFoot  2.11737 -0.229672 1.83821
LeftToes  -7.45818e-011 -3.37383e-011 1.08613e-011
596
root  -5.89804 39.1369 12.8592 -174.687 -58.7446 165.688
RightUpLeg  4.6438 2.383 -16.5185
RightLeg  44.0267 -25.1408 -23.9577
RightFoot  7.39008 -1.25274 7.89297
RightToes  -5.8209e-011 0 -3.6325e-017
Spine  4.36381 7.83918 43.8114
Spine1  11.1767 11.7035 -7.05951
HEad  9.65612 -47.8357 -2.91141
LeftShoulder1  7.27357 -15.6681 -31.9081
LeftArm  -4.95822 -34.6202 -71.4953
LeftForeArm  -23.1542 -9.31145 -7.8686
LeftHand  -0.246645 0.021 5.37786
RightShoulder  6.96632 16.646 28.5257
RightArm  46.2361 64.2072 88.5121
RightForeArm  52.9082 -3.42485 16.5278
RightHand  -0.24729 -0.0210522 -5.37781
LeftUpLeg  -5.89253 0.238414 -11.2951
LeftLeg  23.407 -42.6623 -17.6208
LeftFoot  2.61625 -0.2056 1.55054
LeftToes  -7.45818e-011 -3.37383e-011 1.08613e-011
